<?xml version="1.0" encoding="UTF-8"?>
<svg id="karasuno" data-name="karasuno" xmlns="http://www.w3.org/2000/svg" version="1.1" viewBox="0 0 396.85 396.85">
	<defs>
		<linearGradient id="animated-gradient" x1="-100%" x2="100%" y1="0%" y2="0%" gradientUnits="userSpaceOnUse" spreadMethod="reflect">
			<stop offset="0%" stop-color="#FFFFFF" />
			<stop offset="100%" stop-color="#F5DAA3" />
			<animate attributeName="x1" from="-100%" to="100%" dur="4s" repeatCount="indefinite" />
			<animate attributeName="x2" from="0%" to="200%" dur="4s" repeatCount="indefinite" />
		</linearGradient>
		<style>
			.st1, .st2, .st3 {
				fill: none;
				stroke: #fff;
				/* stroke: url(#animated-gradient); */
				stroke-linecap: round;
				stroke-linejoin: round;
				stroke-width: 3px;
				transition: stroke .3s;
			}
			#karasuno:hover .st1,
			#karasuno:hover .st2,
			#karasuno:hover .st3 {
				stroke: #ED6801;
			}
			@keyframes draw {
				to {
					stroke-dashoffset: 0;
				}
			}
		</style>
	</defs>
	<circle class="st1" cx="198.43" cy="198.43" r="194.17"/>
	<!-- 烏高 -->
	<g>
		<path class="st1" d="M142.74,130.17h78.21c-.24.16-.47.34-.69.53-1.84,1.55-2.97,3.72-3.18,6.11-.21,2.39.53,4.73,2.07,6.57l9.98,11.89c.87,1.04,1.95,1.85,3.15,2.4-1.69,1.65-2.7,3.94-2.7,6.43,0,4.96,4.04,9,9,9h26.15c4.96,0,9-4.04,9-9v-42.93c0-4.96-4.04-9-9-9h-113v-3.36h120.56c4.96,0,9-4.04,9-9s-4.04-9-9-9h-120.56v-5.27h99.47c4.96,0,9-4.04,9-9v-25.91c0-4.96-4.04-9-9-9h-53.07l3.62-7.26c2.21-4.44.4-9.86-4.04-12.07-1.26-.63-2.61-.95-4.01-.95-3.44,0-6.53,1.91-8.06,4.99l-7.62,15.29h-35.29c-4.96,0-9,4.04-9,9v70.54c0,4.96,4.04,9,9,9ZM255.74,130.17v24.93h-12.67c1.1-1.37,1.77-3.04,1.93-4.84.21-2.39-.53-4.73-2.07-6.57l-9.98-11.89c-.53-.63-1.13-1.18-1.79-1.63h24.59ZM151.74,59.63h31.78s.08,0,.08,0h.09s58.53,0,58.53,0v7.91h-90.47v-7.91Z"/>
		<path class="st1" d="M122,171.86c1.38.81,2.95,1.24,4.55,1.24,3.18,0,6.16-1.7,7.77-4.45l11.44-19.49c1.22-2.07,1.55-4.5.95-6.82-.61-2.33-2.08-4.28-4.16-5.49-1.38-.81-2.95-1.24-4.55-1.24-3.18,0-6.16,1.7-7.77,4.45l-11.44,19.49c-1.22,2.07-1.55,4.5-.95,6.82.61,2.33,2.08,4.28,4.16,5.49Z"/>
		<path class="st1" d="M167.25,169.88c.57.11,1.15.17,1.73.17,4.29,0,8-3.06,8.83-7.28,2.16-11.08-1.21-22.62-8.39-28.72-1.63-1.38-3.7-2.14-5.83-2.14-2.65,0-5.15,1.16-6.86,3.17-1.56,1.83-2.31,4.16-2.11,6.56.19,2.4,1.31,4.57,3.14,6.13,1.38,1.18,3.5,5.78,2.38,11.57-.95,4.87,2.24,9.61,7.11,10.55Z"/>
		<path class="st1" d="M270.16,176.99h-63.05v-5.18c0-3.03-1.51-5.7-3.8-7.33.45.07.91.12,1.38.12,1.76,0,3.47-.51,4.94-1.48,2.01-1.32,3.38-3.35,3.87-5.7.49-2.35.03-4.76-1.3-6.77l-9.24-14.04c-1.67-2.54-4.48-4.05-7.52-4.05-1.76,0-3.47.51-4.94,1.48-2.01,1.32-3.38,3.35-3.87,5.7-.49,2.35-.03,4.76,1.3,6.77l9.24,14.04c.62.94,1.4,1.75,2.29,2.38-.44-.07-.89-.11-1.35-.11-4.96,0-9,4.04-9,9v5.18h-63.05c-4.96,0-9,4.04-9,9s4.04,9,9,9h25.45v44.91h-17.46c-4.96,0-9,4.04-9,9v55.91c0,4.96,4.04,9,9,9s9-4.04,9-9v-46.91h110.6v37.91h-11.64c-4.96,0-9,4.04-9,9s4.04,9,9,9h20.64c4.96,0,9-4.04,9-9v-55.91c0-4.96-4.04-9-9-9h-17.94v-44.91h25.45c4.96,0,9-4.04,9-9s-4.04-9-9-9ZM226.71,239.9h-57.2v-4.98h57.2v4.98ZM226.71,216.92h-57.2v-2.95h57.2v2.95ZM226.71,195.97h-57.2v-.98h57.2v.98Z"/>
		<path class="st1" d="M238.87,288.82v-21.38c0-4.96-4.04-9-9-9h-63.53c-4.96,0-9,4.04-9,9v21.38c0,4.96,4.04,9,9,9h63.53c4.96,0,9-4.04,9-9ZM220.87,279.82h-45.53v-3.38h45.53v3.38Z"/>
	</g>
	<!-- 左邊葉子 -->
	<g>
		<path class="st2" d="M263.35,381.39C72.42,385.98-8.09,202.17,74.11,88.92"/>
		<path class="st2" d="M73.22,88.54c22.58,9.05,11.21,40.1,4.8,62.8-7.09,25.13-11.27,71.33,10.15,110.44,39.6,72.33,77.91,59.55,91.64,80.07,10.58,15.82-1.14,40.16-30.55,37.19-23.67-2.39-73.09-34.24-102.8-75.95C9.94,251.83,8.31,193.86,23.03,137.48c11.36-43.5,37.08-54.19,50.18-48.94Z"/>
		<polyline class="st2" points="85.51 122.54 49.75 137.48 45.27 96.58"/>
		<polyline class="st2" points="81.34 139.84 44.48 159.56 27.58 123.49"/>
		<polyline class="st2" points="75.54 161.67 42.35 178.67 21.15 145.11"/>
		<polyline class="st2" points="72.9 180.39 41.89 201.55 17.2 165.25"/>
		<polyline class="st2" points="72.35 199.88 45.05 222.12 14.92 185.03"/>
		<polyline class="st2" points="73.83 217.4 49.29 238.99 14.8 210.34"/>
		<polyline class="st2" points="77.18 234.02 55.13 256.03 17.03 232.8"/>
		<polyline class="st2" points="81.21 246.63 62.83 272.92 22.99 256.86"/>
		<polyline class="st2" points="87.51 260.57 72.18 287.85 33.27 281.48"/>
		<polyline class="st2" points="95.16 273.72 79.9 300.07 44.35 300.07"/>
		<polyline class="st2" points="102.91 285.14 90.81 313.28 55.01 314.2"/>
		<polyline class="st2" points="107.12 290.62 105.93 328.29 68.47 328.29"/>
		<polyline class="st2" points="120.84 305.32 120.84 340.28 79.66 339.57"/>
		<polyline class="st2" points="138.38 318.31 138.41 351.71 95.53 352.48"/>
		<polyline class="st2" points="153.15 325.69 153.15 359.45 114.56 365.19"/>
		<polyline class="st2" points="168.86 332.62 169 366.22 130.77 373.57"/>
	</g>
	<!-- 右邊葉子 -->
	<g>
		<path class="st2" d="M133.26,381.39c190.95,4.6,271.48-179.21,189.27-292.47"/>
		<path class="st2" d="M323.43,88.54c-22.58,9.05-11.21,40.1-4.8,62.8,7.09,25.13,11.27,71.33-10.15,110.44-39.6,72.33-77.91,59.55-91.64,80.07-10.58,15.82,1.14,40.16,30.55,37.19,23.67-2.39,73.09-34.24,102.8-75.95,36.51-51.26,38.15-109.23,23.42-165.61-11.36-43.5-37.08-54.19-50.18-48.94Z"/>
		<polyline class="st2" points="311.13 122.54 346.89 137.48 351.38 96.58"/>
		<polyline class="st2" points="315.31 139.84 352.16 159.56 369.06 123.49"/>
		<polyline class="st2" points="321.1 161.67 354.3 178.67 375.5 145.11"/>
		<polyline class="st2" points="323.74 180.39 354.75 201.55 379.44 165.25"/>
		<polyline class="st2" points="324.29 199.88 351.59 222.12 381.73 185.03"/>
		<polyline class="st2" points="322.82 217.4 347.35 238.99 381.85 210.34"/>
		<polyline class="st2" points="319.47 234.02 341.51 256.03 379.61 232.8"/>
		<polyline class="st2" points="315.43 246.63 333.81 272.92 373.65 256.86"/>
		<polyline class="st2" points="309.14 260.57 324.46 287.85 363.37 281.48"/>
		<polyline class="st2" points="301.49 273.72 316.74 300.07 352.29 300.07"/>
		<polyline class="st2" points="293.74 285.14 305.84 313.28 341.64 314.2"/>
		<polyline class="st2" points="289.53 290.62 290.71 328.29 328.17 328.29"/>
		<polyline class="st2" points="275.81 305.32 275.81 340.28 316.98 339.57"/>
		<polyline class="st2" points="258.26 318.31 258.23 351.71 301.11 352.48"/>
		<polyline class="st2" points="243.5 325.69 243.5 359.45 282.08 365.19"/>
		<polyline class="st2" points="227.79 332.62 227.64 366.22 265.87 373.57"/>
	</g>
	<!-- 後面的線條 -->
	<g>
		<path class="st3" d="M376.59,149.96c5.37-3.03,8.6-4.85,8.6-4.85"/>
		<path class="st3" d="M250.66,239.9c-6.27-14.05-.08-17.41,19.47-29.56,3.18-1.97,27.74-15.92,53.36-30.4"/>
		<path class="st3" d="M285.59,295.54c-4.41-6.54-9.28-13.83-13.94-20.94"/>
		<polyline class="st3" points="157.79 327.65 180.07 299.67 173.62 335.39 198.43 335.39 198.43 335.39 223.23 335.39 216.78 299.67 239.01 327.58"/>
		<path class="st3" d="M125.05,274.84c-4.62,7.04-9.43,14.24-13.78,20.7"/>
		<path class="st3" d="M73.21,179.85c25.68,14.52,50.34,28.51,53.52,30.49,19.55,12.15,25.74,15.51,19.47,29.56"/>
		<path class="st3" d="M11.66,145.11s3.15,1.78,8.41,4.74"/>
		<path class="st3" d="M133.74,51.98c-24.88-3.06-52.19-8.63-52.19-8.63"/>
		<path class="st3" d="M214.5,41.63c-9.57-14.5-16.07-37.38-16.07-37.38h0s-2.21,7.76-5.94,17.1"/>
		<path class="st3" d="M315.31,43.36s-29.48,6-55.08,8.97"/>
	</g>
</svg>