<?xml version="1.0" encoding="UTF-8"?>
<svg id="karasuno" xmlns="http://www.w3.org/2000/svg" version="1.1" viewBox="0 0 396.9 396.9">
  <!-- Generator: Adobe Illustrator 29.3.1, SVG Export Plug-In . SVG Version: 2.1.0 Build 151)  -->
  <defs>
    <style>
      .st0 {
        stroke: #fff;
      }

      .st0, .st1 {
        fill: #040000;
      }

      .st0, .st1, .st2, .st3, .st4 {
        stroke-linecap: round;
        stroke-linejoin: round;
        stroke-width: 3px;
      }

      .st1, .st2, .st3, .st4 {
        stroke: #040000;
      }

      .st2 {
        fill: #fff;
      }

      .st3 {
        fill: none;
      }

      .st4 {
        fill: #e08f1d;
      }
    </style>
  </defs>
  <circle class="st4" cx="198.4" cy="198.4" r="194.2"/>
  <path class="st1" d="M192.5,21.4l-14,30.6h-44.7c-24.8-3.1-52-8.6-52.2-8.6-33.2,25.1-58.2,60.6-69.9,101.7,0,0,3.2,1.8,8.4,4.7l53.1,30c25.7,14.5,50.3,28.5,53.5,30.5,19.6,12.2,25.7,15.5,19.5,29.6l-21.1,34.9c-4.6,7-9.4,14.2-13.8,20.7,0,0,16,16.4,22,20.6s24.5,11.5,24.5,11.5l22.3-28-6.4,35.7h49.6l-6.4-35.7,22.2,27.9s17.8-8,23.8-12.1,22.8-19.9,22.8-19.9c-4.4-6.5-9.3-13.8-13.9-20.9l-21-34.7c-6.3-14.1,0-17.4,19.5-29.6,3.2-2,27.7-15.9,53.4-30.4l53.1-30c5.4-3,8.6-4.8,8.6-4.8-11.7-41.1-36.6-76.7-69.9-101.7-.2,0-29.6,6-55.1,9l-25.7-6-20-4.7c-9.6-14.5-16.1-37.4-16.1-37.4h0s-2.2,7.8-5.9,17.1Z"/>
  <g>
    <path class="st3" d="M376.6,150c5.4-3,8.6-4.8,8.6-4.8"/>
    <path class="st3" d="M250.7,239.9c-6.3-14.1,0-17.4,19.5-29.6,3.2-2,27.7-15.9,53.4-30.4"/>
    <path class="st3" d="M285.6,295.5c-4.4-6.5-9.3-13.8-13.9-20.9"/>
    <polyline class="st3" points="157.8 327.6 180.1 299.7 173.6 335.4 198.4 335.4 198.4 335.4 223.2 335.4 216.8 299.7 239 327.6"/>
    <path class="st3" d="M125,274.8c-4.6,7-9.4,14.2-13.8,20.7"/>
    <path class="st3" d="M73.2,179.8c25.7,14.5,50.3,28.5,53.5,30.5,19.6,12.2,25.7,15.5,19.5,29.6"/>
    <path class="st3" d="M11.7,145.1s3.2,1.8,8.4,4.7"/>
    <path class="st3" d="M133.7,52c-24.9-3.1-52.2-8.6-52.2-8.6"/>
    <path class="st3" d="M214.5,41.6c-9.6-14.5-16.1-37.4-16.1-37.4h0s-2.2,7.8-5.9,17.1"/>
    <path class="st3" d="M315.3,43.4s-29.5,6-55.1,9"/>
  </g>
  <g>
    <path class="st0" d="M142.7,130.2h78.2c-.2.2-.5.3-.7.5-1.8,1.5-3,3.7-3.2,6.1-.2,2.4.5,4.7,2.1,6.6l10,11.9c.9,1,2,1.9,3.2,2.4-1.7,1.7-2.7,3.9-2.7,6.4,0,5,4,9,9,9h26.1c5,0,9-4,9-9v-42.9c0-5-4-9-9-9h-113v-3.4h120.6c5,0,9-4,9-9s-4-9-9-9h-120.6v-5.3h99.5c5,0,9-4,9-9v-25.9c0-5-4-9-9-9h-53.1l3.6-7.3c2.2-4.4.4-9.9-4-12.1-1.3-.6-2.6-.9-4-.9-3.4,0-6.5,1.9-8.1,5l-7.6,15.3h-35.3c-5,0-9,4-9,9v70.5c0,5,4,9,9,9ZM255.7,130.2v24.9h-12.7c1.1-1.4,1.8-3,1.9-4.8.2-2.4-.5-4.7-2.1-6.6l-10-11.9c-.5-.6-1.1-1.2-1.8-1.6h24.6ZM151.7,59.6h31.8s0,0,0,0h0s58.5,0,58.5,0v7.9h-90.5v-7.9Z"/>
    <path class="st0" d="M122,171.9c1.4.8,3,1.2,4.5,1.2,3.2,0,6.2-1.7,7.8-4.4l11.4-19.5c1.2-2.1,1.6-4.5.9-6.8-.6-2.3-2.1-4.3-4.2-5.5-1.4-.8-3-1.2-4.5-1.2-3.2,0-6.2,1.7-7.8,4.4l-11.4,19.5c-1.2,2.1-1.6,4.5-.9,6.8.6,2.3,2.1,4.3,4.2,5.5Z"/>
    <path class="st0" d="M167.3,169.9c.6.1,1.2.2,1.7.2,4.3,0,8-3.1,8.8-7.3,2.2-11.1-1.2-22.6-8.4-28.7-1.6-1.4-3.7-2.1-5.8-2.1s-5.1,1.2-6.9,3.2c-1.6,1.8-2.3,4.2-2.1,6.6.2,2.4,1.3,4.6,3.1,6.1,1.4,1.2,3.5,5.8,2.4,11.6-.9,4.9,2.2,9.6,7.1,10.6Z"/>
    <path class="st0" d="M270.2,177h-63v-5.2c0-3-1.5-5.7-3.8-7.3.5,0,.9.1,1.4.1,1.8,0,3.5-.5,4.9-1.5,2-1.3,3.4-3.3,3.9-5.7.5-2.4,0-4.8-1.3-6.8l-9.2-14c-1.7-2.5-4.5-4.1-7.5-4.1s-3.5.5-4.9,1.5c-2,1.3-3.4,3.3-3.9,5.7-.5,2.4,0,4.8,1.3,6.8l9.2,14c.6.9,1.4,1.7,2.3,2.4-.4,0-.9-.1-1.3-.1-5,0-9,4-9,9v5.2h-63c-5,0-9,4-9,9s4,9,9,9h25.4v44.9h-17.5c-5,0-9,4-9,9v55.9c0,5,4,9,9,9s9-4,9-9v-46.9h110.6v37.9h-11.6c-5,0-9,4-9,9s4,9,9,9h20.6c5,0,9-4,9-9v-55.9c0-5-4-9-9-9h-17.9v-44.9h25.4c5,0,9-4,9-9s-4-9-9-9ZM226.7,239.9h-57.2v-5h57.2v5ZM226.7,216.9h-57.2v-2.9h57.2v2.9ZM226.7,196h-57.2v-1h57.2v1Z"/>
    <path class="st0" d="M238.9,288.8v-21.4c0-5-4-9-9-9h-63.5c-5,0-9,4-9,9v21.4c0,5,4,9,9,9h63.5c5,0,9-4,9-9ZM220.9,279.8h-45.5v-3.4h45.5v3.4Z"/>
  </g>
  <g>
    <path class="st2" d="M73.2,88.5c22.6,9.1,11.2,40.1,4.8,62.8-7.1,25.1-11.3,71.3,10.1,110.4,39.6,72.3,77.9,59.6,91.6,80.1,10.6,15.8-1.1,40.2-30.5,37.2-23.7-2.4-73.1-34.2-102.8-76C9.9,251.8,8.3,193.9,23,137.5c11.4-43.5,37.1-54.2,50.2-48.9Z"/>
    <path class="st3" d="M263.3,381.4C72.4,386-8.1,202.2,74.1,88.9"/>
    <polyline class="st3" points="85.5 122.5 49.8 137.5 45.3 96.6"/>
    <polyline class="st3" points="81.3 139.8 44.5 159.6 27.6 123.5"/>
    <polyline class="st3" points="75.5 161.7 42.3 178.7 21.1 145.1"/>
    <polyline class="st3" points="72.9 180.4 41.9 201.5 17.2 165.3"/>
    <polyline class="st3" points="72.4 199.9 45 222.1 14.9 185"/>
    <polyline class="st3" points="73.8 217.4 49.3 239 14.8 210.3"/>
    <polyline class="st3" points="77.2 234 55.1 256 17 232.8"/>
    <polyline class="st3" points="81.2 246.6 62.8 272.9 23 256.9"/>
    <polyline class="st3" points="87.5 260.6 72.2 287.9 33.3 281.5"/>
    <polyline class="st3" points="95.2 273.7 79.9 300.1 44.4 300.1"/>
    <polyline class="st3" points="102.9 285.1 90.8 313.3 55 314.2"/>
    <polyline class="st3" points="107.1 290.6 105.9 328.3 68.5 328.3"/>
    <polyline class="st3" points="120.8 305.3 120.8 340.3 79.7 339.6"/>
    <polyline class="st3" points="138.4 318.3 138.4 351.7 95.5 352.5"/>
    <polyline class="st3" points="153.1 325.7 153.1 359.5 114.6 365.2"/>
    <polyline class="st3" points="168.9 332.6 169 366.2 130.8 373.6"/>
  </g>
  <g>
    <path class="st2" d="M323.4,88.5c-22.6,9.1-11.2,40.1-4.8,62.8,7.1,25.1,11.3,71.3-10.1,110.4-39.6,72.3-77.9,59.6-91.6,80.1-10.6,15.8,1.1,40.2,30.5,37.2,23.7-2.4,73.1-34.2,102.8-76,36.5-51.3,38.1-109.2,23.4-165.6-11.4-43.5-37.1-54.2-50.2-48.9Z"/>
    <path class="st3" d="M133.3,381.4c190.9,4.6,271.5-179.2,189.3-292.5"/>
    <polyline class="st3" points="311.1 122.5 346.9 137.5 351.4 96.6"/>
    <polyline class="st3" points="315.3 139.8 352.2 159.6 369.1 123.5"/>
    <polyline class="st3" points="321.1 161.7 354.3 178.7 375.5 145.1"/>
    <polyline class="st3" points="323.7 180.4 354.8 201.5 379.4 165.3"/>
    <polyline class="st3" points="324.3 199.9 351.6 222.1 381.7 185"/>
    <polyline class="st3" points="322.8 217.4 347.4 239 381.8 210.3"/>
    <polyline class="st3" points="319.5 234 341.5 256 379.6 232.8"/>
    <polyline class="st3" points="315.4 246.6 333.8 272.9 373.7 256.9"/>
    <polyline class="st3" points="309.1 260.6 324.5 287.9 363.4 281.5"/>
    <polyline class="st3" points="301.5 273.7 316.7 300.1 352.3 300.1"/>
    <polyline class="st3" points="293.7 285.1 305.8 313.3 341.6 314.2"/>
    <polyline class="st3" points="289.5 290.6 290.7 328.3 328.2 328.3"/>
    <polyline class="st3" points="275.8 305.3 275.8 340.3 317 339.6"/>
    <polyline class="st3" points="258.3 318.3 258.2 351.7 301.1 352.5"/>
    <polyline class="st3" points="243.5 325.7 243.5 359.5 282.1 365.2"/>
    <polyline class="st3" points="227.8 332.6 227.6 366.2 265.9 373.6"/>
  </g>
</svg>