<?xml version="1.0" encoding="UTF-8"?>
<svg id="_圖層_1" data-name="圖層 1" xmlns="http://www.w3.org/2000/svg" viewBox="0 0 850.39 188.57">
	<polygon class="cls-1" points="527.21 91.3 473.53 91.59 466.45 75.7 523.11 75.7 504.09 23.78 442.25 23.6 431.32 0 376.24 0 386.67 23.57 345.42 23.57 364.53 75.63 410.39 75.77 417.94 91.57 368.53 91.57 387.63 143.64 441.97 143.92 461.01 185.85 516.31 185.85 497.27 143.7 546.23 143.7 527.21 91.3"/>
	<polygon class="cls-1" points="328.4 1.8 195.52 82.72 217.4 143.2 267.47 114.88 295.33 187.21 345.87 187.21 309.14 90.4 352.21 64.56 328.4 1.8"/>
	<path class="cls-1" d="M672.95,133.7c-6.51-.8-14.79.8-21.36.05-.65-.07-1.19-.05-1.53-.74l-23.6-66.38h-76.15l15.93,45.27,29.43.26,6.77,21.56h-52.58l18.59,52.13h124.2l-18.35-51.68c-.33-.5-.84-.41-1.34-.47Z"/>
	<polygon class="cls-1" points="90.66 35.36 175.88 188.57 235.72 188.57 151.18 35.36 90.66 35.36"/>
	<polygon class="cls-1" points="783.31 127.83 762.91 73.89 645.5 73.89 664.09 127.83 783.31 127.83"/>
	<path class="cls-1" d="M779.68,107.66l9.34,23.31-.5.94h-7.71c-.14,0-.64-.62-1.13-.45.17,1.4-.58,3.61.71,4.5l30.11,10.01V55.53l-30.82-11.11v63.24Z"/>
		<polygon class="cls-1" points="779.68 176.11 810.05 186.76 810.05 152.54 779.68 141.88 779.68 176.11"/>
		<polygon class="cls-1" points="0 .91 35.81 188.57 97.01 188.57 59.84 .91 0 .91"/>
		<polygon class="cls-1" points="819.12 37.17 819.12 128.28 850.39 138.71 850.39 47.6 819.12 37.17"/>
	<path class="cls-1" d="M819.09,145.75c0,5.29-.25,10.93,0,16.32.11,2.22.79,4.58.54,6.94l30.31,10.04v-33.77l-30.82-10.65c.01,3.7-.02,7.42-.02,11.12Z"/>
</svg>