<svg id="prefix___karasuno" data-name="karasuno" xmlns="http://www.w3.org/2000/svg" version="1.1" viewBox="0 0 396.85 396.85">
  <defs>
    <style>
      .prefix__st0 {
        fill: #fff
      }
      .prefix__st1 {
        fill: none;
        stroke: #fff;
        stroke-linecap: round;
        stroke-linejoin: round;
        stroke-width: 3px
      }
    </style>
  </defs>
  <circle class="prefix__st1" cx="198.43" cy="198.43" r="194.17" />
  <path class="prefix__st1"
    d="M263.35 381.39C72.42 385.98-8.09 202.17 74.11 88.92M73.22 88.54c22.58 9.05 11.21 40.1 4.8 62.8-7.09 25.13-11.27 71.33 10.15 110.44 39.6 72.33 77.91 59.55 91.64 80.07 10.58 15.82-1.14 40.16-30.55 37.19-23.67-2.39-73.09-34.24-102.8-75.95C9.94 251.83 8.31 193.86 23.03 137.48c11.36-43.5 37.08-54.19 50.18-48.94z" />
  <path class="prefix__st1" d="M85.51 122.54l-35.76 14.94-4.48-40.9" />
  <path class="prefix__st1" d="M81.34 139.84l-36.86 19.72-16.9-36.07" />
  <path class="prefix__st1" d="M75.54 161.67l-33.19 17-21.2-33.56" />
  <path class="prefix__st1" d="M72.9 180.39l-31.01 21.16-24.69-36.3" />
  <path class="prefix__st1" d="M72.35 199.88l-27.3 22.24-30.13-37.09" />
  <path class="prefix__st1" d="M73.83 217.4l-24.54 21.59-34.49-28.65" />
  <path class="prefix__st1" d="M77.18 234.02l-22.05 22.01-38.1-23.23" />
  <path class="prefix__st1" d="M81.21 246.63l-18.38 26.29-39.84-16.06" />
  <path class="prefix__st1" d="M87.51 260.57l-15.33 27.28-38.91-6.37" />
  <path class="prefix__st1" d="M95.16 273.72L79.9 300.07H44.35" />
  <path class="prefix__st1" d="M102.91 285.14l-12.1 28.14-35.8.92" />
  <path class="prefix__st1" d="M107.12 290.62l-1.19 37.67H68.47" />
  <path class="prefix__st1" d="M120.84 305.32v34.96l-41.18-.71" />
  <path class="prefix__st1" d="M138.38 318.31l.03 33.4-42.88.77" />
  <path class="prefix__st1" d="M153.15 325.69v33.76l-38.59 5.74" />
  <path class="prefix__st1" d="M168.86 332.62l.14 33.6-38.23 7.35" />
  <g>
    <path class="prefix__st1"
      d="M133.26 381.39c190.95 4.6 271.48-179.21 189.27-292.47M323.43 88.54c-22.58 9.05-11.21 40.1-4.8 62.8 7.09 25.13 11.27 71.33-10.15 110.44-39.6 72.33-77.91 59.55-91.64 80.07-10.58 15.82 1.14 40.16 30.55 37.19 23.67-2.39 73.09-34.24 102.8-75.95 36.51-51.26 38.15-109.23 23.42-165.61-11.36-43.5-37.08-54.19-50.18-48.94z" />
    <path class="prefix__st1" d="M311.13 122.54l35.76 14.94 4.49-40.9" />
    <path class="prefix__st1" d="M315.31 139.84l36.85 19.72 16.9-36.07" />
    <path class="prefix__st1" d="M321.1 161.67l33.2 17 21.2-33.56" />
    <path class="prefix__st1" d="M323.74 180.39l31.01 21.16 24.69-36.3" />
    <path class="prefix__st1" d="M324.29 199.88l27.3 22.24 30.14-37.09" />
    <path class="prefix__st1" d="M322.82 217.4l24.53 21.59 34.5-28.65" />
    <path class="prefix__st1" d="M319.47 234.02l22.04 22.01 38.1-23.23" />
    <path class="prefix__st1" d="M315.43 246.63l18.38 26.29 39.84-16.06" />
    <path class="prefix__st1" d="M309.14 260.57l15.32 27.28 38.91-6.37" />
    <path class="prefix__st1" d="M301.49 273.72l15.25 26.35h35.55" />
    <path class="prefix__st1" d="M293.74 285.14l12.1 28.14 35.8.92" />
    <path class="prefix__st1" d="M289.53 290.62l1.18 37.67h37.46" />
    <path class="prefix__st1" d="M275.81 305.32v34.96l41.17-.71" />
    <path class="prefix__st1" d="M258.26 318.31l-.03 33.4 42.88.77" />
    <path class="prefix__st1" d="M243.5 325.69v33.76l38.58 5.74" />
    <path class="prefix__st1" d="M227.79 332.62l-.15 33.6 38.23 7.35" />
  </g>
  <g>
    <path class="prefix__st1"
      d="M376.59 149.96c5.37-3.03 8.6-4.85 8.6-4.85M250.26 238.98c-5.59-13.29.75-16.76 19.87-28.64 3.18-1.97 27.74-15.92 53.36-30.4M285.59 295.54c-4.29-6.37-9.02-13.45-13.58-20.39M157.79 327.65l22.28-27.98-6.45 35.72h49.61l-6.45-35.72 22.23 27.91M125.36 274.37c-4.71 7.19-9.64 14.56-14.1 21.17M73.21 179.85c25.68 14.52 50.34 28.51 53.52 30.49 19.12 11.88 25.46 15.35 19.87 28.64M11.66 145.11s3.15 1.78 8.41 4.74M132.55 51.84c-24.55-3.09-51.01-8.48-51.01-8.48M213.9 40.71c-9.24-14.53-15.48-36.46-15.48-36.46s-2.07 7.29-5.6 16.25M315.31 43.36s-28.12 5.73-53.28 8.76" />
  </g>
  <g>
    <path class="prefix__st0"
      d="M194.04 23.43c1.12 0 2.26.25 3.34.79a7.499 7.499 0 013.37 10.06l-4.7 9.43h55.49c4.14 0 7.5 3.36 7.5 7.5v25.91c0 4.14-3.36 7.5-7.5 7.5H150.57v8.27h122.06c4.14 0 7.5 3.36 7.5 7.5s-3.36 7.5-7.5 7.5H150.57v6.36h114.5c4.14 0 7.5 3.36 7.5 7.5v42.93c0 4.14-3.36 7.5-7.5 7.5h-26.15c-4.14 0-7.5-3.36-7.5-7.5 0-3.34 2.19-6.17 5.21-7.14-.09 0-.18.02-.27.02a7.49 7.49 0 01-5.75-2.68l-9.98-11.89c-2.66-3.17-2.25-7.9.92-10.57a7.49 7.49 0 014.82-1.76c2.14 0 4.26.91 5.75 2.68l9.98 11.89c2.66 3.17 2.25 7.9-.92 10.57-.78.65-1.65 1.1-2.56 1.39.1 0 .2-.02.3-.02h18.65v-27.93h-114.5c-4.14 0-7.5-3.36-7.5-7.5V51.21c0-4.14 3.36-7.5 7.5-7.5h36.22l8.03-16.12a7.503 7.503 0 016.72-4.16m-10.11 35.28h-33.36v10.91h93.47V58.71H183.92m10.12-38.28c-4.01 0-7.62 2.23-9.4 5.82l-7.2 14.46h-34.36c-5.79 0-10.5 4.71-10.5 10.5v70.54c0 5.79 4.71 10.5 10.5 10.5h74.63a10.398 10.398 0 00-1.78 5.01c-.24 2.79.62 5.52 2.42 7.66l9.98 11.89c.59.7 1.26 1.32 2 1.84a10.45 10.45 0 00-1.89 6.03c0 5.79 4.71 10.5 10.5 10.5h26.15c5.79 0 10.5-4.71 10.5-10.5v-42.93c0-5.79-4.71-10.5-10.5-10.5h-111.5v-.36h119.06c5.79 0 10.5-4.71 10.5-10.5s-4.71-10.5-10.5-10.5H153.59v-2.27h97.97c5.79 0 10.5-4.71 10.5-10.5V51.21c0-5.79-4.71-10.5-10.5-10.5h-50.65l2.54-5.09c2.58-5.18.47-11.5-4.72-14.08-1.45-.72-3.07-1.1-4.68-1.1zm-10.02 41.28h57.03v4.91h-87.47v-4.91h30.45zm51.1 70.54h19.45v21.93h-8.54c.43-1.01.7-2.08.8-3.21.24-2.79-.62-5.52-2.42-7.66l-9.28-11.06zM138.33 137.69c1.29 0 2.6.33 3.79 1.03 3.57 2.1 4.77 6.69 2.67 10.26l-11.44 19.49a7.504 7.504 0 01-10.27 2.68c-3.57-2.1-4.77-6.69-2.67-10.26l11.44-19.49c1.4-2.38 3.9-3.71 6.48-3.71m0-3c-3.71 0-7.19 1.99-9.06 5.19l-11.44 19.49a10.416 10.416 0 00-1.1 7.96c.71 2.71 2.43 4.99 4.85 6.41 1.61.95 3.45 1.45 5.31 1.45 3.71 0 7.19-1.99 9.06-5.19l11.44-19.49c1.42-2.42 1.81-5.25 1.1-7.96s-2.43-4.99-4.85-6.41c-1.61-.95-3.45-1.44-5.31-1.44z" />
    <path class="prefix__st0"
      d="M195.77 134.63c2.44 0 4.83 1.19 6.27 3.38l9.24 14.04a7.5 7.5 0 01-2.14 10.39c-1.27.84-2.7 1.24-4.12 1.24-2.44 0-4.83-1.19-6.27-3.38l-9.24-14.04a7.5 7.5 0 012.14-10.39c1.27-.84 2.7-1.24 4.12-1.24m0-3c-2.05 0-4.05.6-5.76 1.73-2.34 1.54-3.95 3.9-4.51 6.65a10.41 10.41 0 001.51 7.89l9.24 14.04c1.95 2.96 5.23 4.73 8.78 4.73 2.05 0 4.05-.6 5.77-1.73 2.34-1.54 3.95-3.9 4.51-6.65.57-2.75.03-5.55-1.51-7.89l-9.24-14.04a10.484 10.484 0 00-8.78-4.73zM163.93 133.98c1.72 0 3.44.59 4.86 1.79 6.77 5.76 9.94 16.73 7.89 27.29a7.51 7.51 0 01-7.35 6.07c-.48 0-.96-.05-1.44-.14a7.496 7.496 0 01-5.93-8.79c1.2-6.18-1.01-11.41-2.88-13a7.497 7.497 0 01-.86-10.57 7.455 7.455 0 015.72-2.64m-.01-3.01c-3.09 0-6 1.35-8 3.7a10.449 10.449 0 00-2.47 7.65c.23 2.8 1.53 5.34 3.66 7.15.97.83 2.89 4.92 1.88 10.14-1.11 5.68 2.62 11.21 8.3 12.31.67.13 1.35.19 2.01.19 5.01 0 9.34-3.57 10.3-8.5 2.26-11.6-1.31-23.71-8.89-30.15-1.9-1.61-4.31-2.5-6.8-2.5z" />
    <path class="prefix__st0"
      d="M198.44 164.89c4.14 0 7.5 3.36 7.5 7.5v6.68h64.55c4.14 0 7.5 3.36 7.5 7.5s-3.36 7.5-7.5 7.5h-26.95v47.91h19.44c4.14 0 7.5 3.36 7.5 7.5v55.91c0 4.14-3.36 7.5-7.5 7.5h-20.64c-4.14 0-7.5-3.36-7.5-7.5s3.36-7.5 7.5-7.5h13.14v-40.91h-113.6v48.41c0 4.14-3.36 7.5-7.5 7.5s-7.5-3.36-7.5-7.5v-55.91c0-4.14 3.36-7.5 7.5-7.5h18.96v-47.91h-26.95c-4.14 0-7.5-3.36-7.5-7.5s3.36-7.5 7.5-7.5h64.55v-6.68c0-4.14 3.36-7.5 7.5-7.5m-30.1 33.16h60.2v-3.98h-60.2v3.98m0 20.95h60.2v-5.95h-60.2V219m0 22.98h60.2V234h-60.2v7.98m30.1-80.09c-5.79 0-10.5 4.71-10.5 10.5v3.68h-61.55c-5.79 0-10.5 4.71-10.5 10.5s4.71 10.5 10.5 10.5h23.95v41.91h-15.96c-5.79 0-10.5 4.71-10.5 10.5v55.91c0 5.79 4.71 10.5 10.5 10.5s10.5-4.71 10.5-10.5v-45.41h107.6v34.91h-10.14c-5.79 0-10.5 4.71-10.5 10.5s4.71 10.5 10.5 10.5h20.64c5.79 0 10.5-4.71 10.5-10.5v-55.91c0-5.79-4.71-10.5-10.5-10.5h-16.44v-41.91h23.95c5.79 0 10.5-4.71 10.5-10.5s-4.71-10.5-10.5-10.5h-61.55v-3.68c0-5.79-4.71-10.5-10.5-10.5zM171.34 237h54.2v1.98h-54.2V237z" />
    <path class="prefix__st0"
      d="M230.21 260.52c4.14 0 7.5 3.36 7.5 7.5v21.38c0 4.14-3.36 7.5-7.5 7.5h-63.53c-4.14 0-7.5-3.36-7.5-7.5v-21.38c0-4.14 3.36-7.5 7.5-7.5h63.53m-56.03 21.39h48.53v-6.38h-48.53v6.38m56.03-24.39h-63.53c-5.79 0-10.5 4.71-10.5 10.5v21.38c0 5.79 4.71 10.5 10.5 10.5h63.53c5.79 0 10.5-4.71 10.5-10.5v-21.38c0-5.79-4.71-10.5-10.5-10.5zm-53.03 21h42.53v.38h-42.53v-.38z" />
  </g>
</svg>